<?xml version="1.0" encoding="UTF-8"?>
<svg width="24px" height="24px" viewBox="0 0 24 24" version="1.1" xmlns="http://www.w3.org/2000/svg" xmlns:xlink="http://www.w3.org/1999/xlink">
    <defs>
        <circle id="path-1" cx="10.677686" cy="10.677686" r="10.677686"></circle>
        <path d="M10.6648741,3.1637588 C10.9905556,3.19230826 11.2560962,3.23101608 11.461496,3.28013341 C11.6666167,3.32986471 11.8330296,3.38997766 11.9604278,3.45994196 C12.087798,3.53049233 12.1973631,3.6150523 12.2896814,3.71390096 C12.3816369,3.8127217 12.4772204,3.91157035 12.5763481,4.01005621 L12.9797243,4.01005621 C13.1074294,4.01005621 13.2310041,4.02763799 13.3515091,4.06305271 C13.4721256,4.09818835 13.5923515,4.16519446 13.7126332,4.2640152 C13.8329427,4.36283594 13.9639409,4.50393668 14.1056277,4.6873453 C14.4313092,5.1106475 14.6718167,5.57237844 14.8278201,6.07340324 C14.9834886,6.57409316 15.0969329,7.05008486 15.1674554,7.50171327 C15.2383964,8.02358505 15.2808997,8.53831248 15.2951605,9.04614673 C15.3231518,9.11672501 15.3446127,9.20156404 15.3588735,9.30013363 C15.3728831,9.39895437 15.3832926,9.51895698 15.3904648,9.66002981 C15.3975534,9.80118635 15.3868369,9.97736692 15.3588735,10.1890459 C15.3302682,10.4709683 15.288044,10.6933359 15.2315033,10.8555906 C15.1746276,11.0175662 15.1109146,11.1413921 15.0403921,11.2259521 C14.9695348,11.3247728 14.8915331,11.3950441 14.806415,11.4372962 C14.7498463,11.662929 14.6861333,11.8677428 14.615276,12.0511514 C14.5444186,12.2202434 14.4702961,12.3860145 14.3923223,12.5482691 C14.3145997,12.7104959 14.2187371,12.8340428 14.1056277,12.9186027 C13.8647853,13.1159651 13.6665019,13.281792 13.5108055,13.4157484 L13.4855213,13.433563 C13.4752392,13.4472547 13.4649061,13.4608712 13.4545226,13.4744118 L13.5108055,13.4157484 C13.4697501,13.4510849 13.4321286,13.4930447 13.3979482,13.5416287 C12.659971,14.4746143 11.6786812,15.0278543 10.677686,15.0278543 C9.63979644,15.0278543 8.57805924,14.4330806 7.83030273,13.4404625 C7.79699536,13.3962482 7.73585079,13.3512446 7.65672495,13.305469 L7.80817034,13.4475351 C7.63104093,13.2781919 7.43638554,13.1018997 7.22409257,12.9185469 C7.11095523,12.833987 7.01512061,12.7104401 6.93711891,12.5481854 C6.85942421,12.3859587 6.78530167,12.2201318 6.71444432,12.0510677 C6.64358698,11.867687 6.57990188,11.6628732 6.5233332,11.4372404 C6.49475583,11.4089142 6.45247586,11.3598527 6.395963,11.2892744 C6.35309695,11.2187241 6.30367262,11.1234476 6.24713187,11.0034729 C6.19056321,10.8835261 6.12682229,10.7108619 6.05596495,10.4852012 C5.98513551,10.2595405 5.93928334,10.0582989 5.91782241,9.88211836 C5.89636149,9.70588198 5.89998946,9.55403682 5.92851101,9.42725268 C5.94252061,9.27183537 5.97793534,9.13785105 6.03453191,9.02532768 C6.03453191,8.53114024 6.06308137,8.03753883 6.11965003,7.54399326 C6.17621869,7.13500767 6.26820209,6.69021662 6.39590718,6.21090391 C6.52330529,5.73106095 6.72842601,5.30089349 7.01154843,4.92012245 C7.26637257,4.56734272 7.54265761,4.27473173 7.83973383,4.04195458 C8.13745191,3.80914954 8.44524461,3.62931308 8.76378176,3.50250102 C9.08231888,3.375382 9.4044003,3.28727776 9.73010966,3.23788134 C10.0557911,3.18845702 10.3674351,3.1637588 10.6648741,3.1637588 Z" id="path-3"></path>
        <filter x="-36.9%" y="-21.1%" width="173.8%" height="159.0%" filterUnits="objectBoundingBox" id="filter-4">
            <feOffset dx="0" dy="1" in="SourceAlpha" result="shadowOffsetOuter1"></feOffset>
            <feGaussianBlur stdDeviation="1" in="shadowOffsetOuter1" result="shadowBlurOuter1"></feGaussianBlur>
            <feColorMatrix values="0 0 0 0 0   0 0 0 0 0   0 0 0 0 0  0 0 0 0.06 0" type="matrix" in="shadowBlurOuter1"></feColorMatrix>
        </filter>
    </defs>
    <g id="控件" stroke="none" stroke-width="1" fill="none" fill-rule="evenodd">
        <g id="f2.导航/1.导航/1.顶部导航/1.顶部导航" transform="translate(-1214.000000, -13.000000)">
            <g id="Group-12" transform="translate(-0.002987, 0.000000)">
                <g id="Group-12" transform="translate(1214.002987, 13.000000)">
                    <circle id="Oval-2" fill="#8A9AB2" cx="11.9338843" cy="11.9338843" r="11.9338843"></circle>
                    <g id="user" transform="translate(1.256198, 1.256198)">
                        <mask id="mask-2" fill="white">
                            <use xlink:href="#path-1"></use>
                        </mask>
                        <use id="Mask" fill="#8A9AB2" xlink:href="#path-1"></use>
                        <path d="M7.83030273,13.4404625 C8.57805924,14.4330806 9.63979644,15.0278543 10.677686,15.0278543 C11.6793957,15.0278543 12.6613718,14.4738242 13.4011331,13.5428088 C13.3032111,13.6753972 13.2341323,13.8633266 13.1922963,14.1034191 C13.1499884,14.3010885 13.1357276,14.4987579 13.1499884,14.6958412 C13.1639701,14.8935664 13.2172736,15.0947801 13.3089779,15.2989799 C13.4012683,15.5037936 13.5497645,15.6976118 13.7549131,15.8809646 C13.9603129,16.0646802 14.2473145,16.2266279 14.615248,16.3677007 C14.9409574,16.4945407 15.2984256,16.6109711 15.687848,16.7166292 C16.0775216,16.8225385 16.4525995,16.9425411 16.8134445,17.0765254 C17.1747919,17.2107608 17.496957,17.383425 17.7800236,17.5950762 C18.063146,17.8066157 18.2614015,18.0816728 18.3745388,18.4201638 C18.4311075,18.6175542 18.4808388,18.8682759 18.5233699,19.1712685 C18.5656499,19.474596 18.587083,19.7815515 18.587083,20.0917163 C18.587083,20.401937 18.5623568,20.6948829 18.5126534,20.96994 C18.4632291,21.2449971 18.3887996,21.453104 18.2896718,21.5942047 C18.2191215,21.6927185 18.0384199,21.7879391 17.748181,21.8796713 C17.4579422,21.9714315 17.0932738,22.0559077 16.654455,22.1336862 C16.2153851,22.2113529 15.7268628,22.2851685 15.1886093,22.3560259 C14.6509698,22.4263251 14.1127441,22.4864101 13.5745464,22.5358344 C13.0365999,22.5852587 12.5126351,22.6203944 12.0027077,22.6414925 C11.4930316,22.6625906 11.0470684,22.6733351 10.6648462,22.6733351 C10.2826239,22.6733351 9.84023296,22.6590464 9.33742206,22.631083 C8.83463908,22.6027847 8.31779066,22.56737 7.7867094,22.52509 C7.25562813,22.48281 6.72842599,22.4334136 6.20476815,22.3768449 C5.68083121,22.3205553 5.20271852,22.2571493 4.77107196,22.1866269 C4.33883935,22.1161044 3.97087788,22.0490704 3.66660153,21.9856923 C3.36176701,21.9220072 3.17422806,21.8553081 3.10337072,21.7844507 C2.97597261,21.6856021 2.87712395,21.371865 2.80626661,20.842821 C2.73540926,20.3138328 2.76370755,19.6261342 2.89113357,18.7798368 C2.961963,18.3002171 3.15667421,17.9334835 3.47521134,17.6795245 C3.79405546,17.4256214 4.161989,17.2246589 4.57993295,17.0764138 C4.99731873,16.9284478 5.43638872,16.7978124 5.89636147,16.6849542 C6.35658539,16.5721238 6.75669639,16.4027806 7.09663864,16.1771199 C7.36544446,16.008 7.57444434,15.8454662 7.7229964,15.6906908 C7.87182753,15.5352734 7.97782054,15.380191 8.04153353,15.2250807 C8.10524654,15.0696912 8.13742398,14.9077435 8.13742398,14.7383724 C8.13742398,14.5689455 8.13027964,14.3784483 8.11596305,14.1670763 C8.08799965,13.8565487 7.98496487,13.6169063 7.80817034,13.4475351 L7.65492397,13.3044288 C7.73492298,13.3505628 7.7967431,13.3959133 7.83030273,13.4404625 Z" id="Shape" fill="#FFFFFF" fill-rule="nonzero" mask="url(#mask-2)"></path>
                        <g id="Combined-Shape" fill-rule="nonzero" mask="url(#mask-2)">
                            <use fill="black" fill-opacity="1" filter="url(#filter-4)" xlink:href="#path-3"></use>
                            <use fill="#FFFFFF" xlink:href="#path-3"></use>
                        </g>
                    </g>
                </g>
            </g>
        </g>
    </g>
</svg>